<?xml version="1.0" encoding="UTF-8" standalone="no"?>
<svg
   version="1.1"
   id="Layer_2"
   x="0px"
   y="0px"
   width="648.5px"
   height="652.8px"
   viewBox="0 0 648.5 652.8"
   style="enable-background:new 0 0 648.5 652.8;"
   xml:space="preserve"
   xmlns="http://www.w3.org/2000/svg">
<style
   type="text/css"
   id="style1">
   .st0{fill:#164477;}
   .st1{fill:#3399CC;}
   .st2{fill:#ffffff;}
   .st3{fill:#4CAF50;stroke:#388E3C;stroke-width:4;}
   .st4{fill:#ffffff;stroke:#388E3C;stroke-width:3;}
</style>

<!-- EXAKT IDENTISCH ZU IOBROKER BASIS: Komplettes Original Design -->
<g id="g4">
   <g id="g1">
      <path
   class="st0"
   d="m 386,91 v 68.6 c 68.2,25.1 117,90.5 117,167 0,98.1 -80.2,177.9 -178.7,177.9 -98.5,0 -178.7,-79.8 -178.7,-177.9 0,-76.5 48.8,-141.9 117,-167 V 91 C 159.2,118.5 8.0147517,473.20662 8.0147517,586.20662 8.0147517,720.80662 191,570.2 324.2,570.2 c 133.2,0 315.30189,148.83991 315.30189,14.23991 C 639.50189,496.17387 489.2,118.5 386,91 Z"
   id="path1" />
   </g>
   <path
   class="st1"
   d="M324.2,148.6c12.4,0,24.5,1.3,36.3,3.7V85.6c-11.8-1.8-23.9-2.7-36.3-2.7s-24.4,0.9-36.3,2.7v66.7   C299.7,149.9,311.8,148.6,324.2,148.6z"
   id="path2" />
   <g id="g3">
      <path
   class="st1"
   d="M324.2,175.3c-12.5,0-24.6,1.5-36.2,4.4v291c11.6,2.9,23.8,4.4,36.2,4.4c12.5,0,24.6-1.5,36.3-4.4v-291    C348.9,176.9,336.7,175.3,324.2,175.3z"
   id="path3" />
   </g>
</g>

<!-- ZUSÄTZLICH: Grünes Uhren-Symbol für History (doppelte Größe) -->
<g transform="translate(520,520)">
  <!-- Uhren-Basis (grüner Kreis) - doppelte Größe -->
  <circle cx="0" cy="0" r="130" class="st3"/>
  
  <!-- Innerer weißer Kreis - doppelte Größe -->
  <circle cx="0" cy="0" r="110" class="st4"/>
  
  <!-- 12 Stunden-Markierungen - doppelte Größe -->
  <g stroke="#388E3C" stroke-width="6" fill="#388E3C">
    <!-- 12, 3, 6, 9 Uhr (dickere Striche) -->
    <rect x="-4" y="-110" width="8" height="30"/>
    <rect x="-4" y="80" width="8" height="30"/>
    <rect x="80" y="-4" width="30" height="8"/>
    <rect x="-110" y="-4" width="30" height="8"/>
    
    <!-- Andere Stunden (dünnere Striche) -->
    <g transform="rotate(30)">
      <rect x="-2" y="-110" width="4" height="20"/>
      <rect x="-2" y="90" width="4" height="20"/>
    </g>
    <g transform="rotate(60)">
      <rect x="-2" y="-110" width="4" height="20"/>
      <rect x="-2" y="90" width="4" height="20"/>
    </g>
    <g transform="rotate(120)">
      <rect x="-2" y="-110" width="4" height="20"/>
      <rect x="-2" y="90" width="4" height="20"/>
    </g>
    <g transform="rotate(150)">
      <rect x="-2" y="-110" width="4" height="20"/>
      <rect x="-2" y="90" width="4" height="20"/>
    </g>
  </g>
  
  <!-- Uhrzeiger - doppelte Größe -->
  <!-- Stundenzeiger (dick, kurz) - zeigt auf 2 Uhr -->
  <line x1="0" y1="0" x2="40" y2="-70" stroke="#164477" stroke-width="12" stroke-linecap="round"/>
  
  <!-- Minutenzeiger (dünner, länger) - zeigt auf 10 Minuten -->
  <line x1="0" y1="0" x2="-50" y2="-80" stroke="#164477" stroke-width="8" stroke-linecap="round"/>
  
  <!-- Zentrum - doppelte Größe -->
  <circle cx="0" cy="0" r="16" fill="#164477"/>
  <circle cx="0" cy="0" r="8" fill="#388E3C"/>
</g>

</svg>