<?xml version="1.0" encoding="UTF-8" standalone="no"?>
<svg
   version="1.1"
   id="Layer_2"
   x="0px"
   y="0px"
   width="648.5px"
   height="652.8px"
   viewBox="0 0 648.5 652.8"
   style="enable-background:new 0 0 648.5 652.8;"
   xml:space="preserve"
   sodipodi:docname="iobroker_in.svg"
   inkscape:version="1.3.2 (091e20e, 2023-11-25, custom)"
   xmlns:inkscape="http://www.inkscape.org/namespaces/inkscape"
   xmlns:sodipodi="http://sodipodi.sourceforge.net/DTD/sodipodi-0.dtd"
   xmlns="http://www.w3.org/2000/svg"
   xmlns:svg="http://www.w3.org/2000/svg"><defs
   id="defs4"><symbol
     id="RightArrow"><title
       id="title272">Right Arrow</title><path
       d="M 63,36 41,58 H 26 L 42,42 H 10 V 30 H 42 L 26,14 h 15 z"
       style="stroke:none"
       id="path272" /></symbol></defs><sodipodi:namedview
   id="namedview4"
   pagecolor="#ffffff"
   bordercolor="#000000"
   borderopacity="0.25"
   inkscape:showpageshadow="2"
   inkscape:pageopacity="0.0"
   inkscape:pagecheckerboard="0"
   inkscape:deskcolor="#d1d1d1"
   inkscape:zoom="1.1320466"
   inkscape:cx="324.1916"
   inkscape:cy="326.39999"
   inkscape:window-width="1920"
   inkscape:window-height="974"
   inkscape:window-x="-11"
   inkscape:window-y="-11"
   inkscape:window-maximized="1"
   inkscape:current-layer="Layer_2" />
<style
   type="text/css"
   id="style1">
	.st0{fill:#164477;}
	.st1{fill:#3399CC;}
</style>
<g
   id="g4">
	<g
   id="g1">
		<path
   class="st0"
   d="m 386,91 v 68.6 c 68.2,25.1 117,90.5 117,167 0,98.1 -80.2,177.9 -178.7,177.9 -98.5,0 -178.7,-79.8 -178.7,-177.9 0,-76.5 48.8,-141.9 117,-167 V 91 C 159.2,118.5 10.664819,474.97334 10.664819,587.97334 10.664819,722.57334 191,570.2 324.2,570.2 457.4,570.2 565.3,461.1 565.3,326.5 565.3,213.5 489.2,118.5 386,91 Z"
   id="path1"
   sodipodi:nodetypes="ccsssccsssc" />
	</g>
	<path
   class="st1"
   d="M324.2,148.6c12.4,0,24.5,1.3,36.3,3.7V85.6c-11.8-1.8-23.9-2.7-36.3-2.7s-24.4,0.9-36.3,2.7v66.7   C299.7,149.9,311.8,148.6,324.2,148.6z"
   id="path2" />
	<g
   id="g3">
		<path
   class="st1"
   d="M324.2,175.3c-12.5,0-24.6,1.5-36.2,4.4v291c11.6,2.9,23.8,4.4,36.2,4.4c12.5,0,24.6-1.5,36.3-4.4v-291    C348.9,176.9,336.7,175.3,324.2,175.3z"
   id="path3" />
	</g>
</g>
</svg>
